# xmcd CD database file
#
# Track frame offsets:
#	150
#	14785
#	30857
#	41295
#	57835
#	69282
#	88347
#	105847
#	131345
#	148930
#	166365
#
# Disc length: 2358 seconds
#
# Revision: 0
# Processed by: cddbd v1.5.2PL0 Copyright (c) Steve Scherf et al.
# Submitted via: CDex 1.51
#
DISCID=8909340b
DTITLE=Bobby McFerrin - Spontaneous Inventions
DYEAR=1986
DGENRE=Jazz
TTITLE0=thinkin' about your body
TTITLE1=turtle shoes
TTITLE2=form me to you
TTITLE3=there ya go
TTITLE4=cara mia
TTITLE5=another night in tunisia
TTITLE6=opportunity
TTITLE7=walkin'
TTITLE8=i hear music
TTITLE9=beverly hills blues
TTITLE10=manana iguana
EXTD=YEAR: 1986
EXTT0=
EXTT1=
EXTT2=
EXTT3=
EXTT4=
EXTT5=
EXTT6=
EXTT7=
EXTT8=
EXTT9=
EXTT10=
PLAYORDER=
